<svg width="400" height="240" viewBox="0 0 400 240" xmlns="http://www.w3.org/2000/svg">
<title>Replication Journal Federation logo — 8 journals</title>
<desc>A flat diamond with eight interlocking colored circles.</desc>

<defs>
<style>
.ring { fill: none; stroke-width: 2.6; stroke-linecap: round; }
.dm { fill: none; stroke-width: 2.2; stroke-linejoin: round; stroke: #2980B9; }
.dm-bg { opacity: 0.08; fill: #2980B9; }
.c1 { stroke: #1B6B93; } .c2 { stroke: #2E8B57; } .c3 { stroke: #C0392B; }
.c4 { stroke: #D4A017; } .c5 { stroke: #7D3C98; } .c6 { stroke: #E67E22; }
.c7 { stroke: #16A085; } .c8 { stroke: #8B4513; }
</style>
<clipPath id="d8-in"><polygon points="200,20 280,100 200,180 120,100"/></clipPath>
<clipPath id="d8-out"><path d="M0,0H400V240H0Z M200,20L120,100 200,180 280,100Z" clip-rule="evenodd"/></clipPath>
</defs>

<polygon class="dm-bg" points="200,20 280,100 200,180 120,100"/>
<polygon class="dm" points="200,20 280,100 200,180 120,100"/>

<g clip-path="url(#d8-out)">
  <circle class="ring c1" cx="200" cy="13" r="30"/>
  <circle class="ring c2" cx="258" cy="34" r="30"/>
  <circle class="ring c3" cx="286" cy="100" r="30"/>
  <circle class="ring c4" cx="258" cy="166" r="30"/>
  <circle class="ring c5" cx="200" cy="187" r="30"/>
  <circle class="ring c6" cx="142" cy="166" r="30"/>
  <circle class="ring c7" cx="114" cy="100" r="30"/>
  <circle class="ring c8" cx="142" cy="34" r="30"/>
</g>

<g clip-path="url(#d8-in)">
  <circle class="ring c1" cx="200" cy="13" r="30"/>
  <circle class="ring c2" cx="258" cy="34" r="30"/>
  <circle class="ring c3" cx="286" cy="100" r="30"/>
  <circle class="ring c4" cx="258" cy="166" r="30"/>
  <circle class="ring c5" cx="200" cy="187" r="30"/>
  <circle class="ring c6" cx="142" cy="166" r="30"/>
  <circle class="ring c7" cx="114" cy="100" r="30"/>
  <circle class="ring c8" cx="142" cy="34" r="30"/>
</g>

</svg>
