<svg width="400" height="260" viewBox="0 0 400 260" xmlns="http://www.w3.org/2000/svg">
<title>Replication Journal Federation logo — 8 journals</title>
<desc>A flat diamond with eight interlocking colored circles.</desc>

<defs>
<style>
.ring { fill: none; stroke-width: 2.6; stroke-linecap: round; }
.dm { fill: none; stroke-width: 2.2; stroke-linejoin: round; stroke: #2980B9; }
.dm-bg { opacity: 0.08; fill: #2980B9; }
.c1 { stroke: #1B6B93; } .c2 { stroke: #2E8B57; } .c3 { stroke: #C0392B; }
.c4 { stroke: #D4A017; } .c5 { stroke: #7D3C98; } .c6 { stroke: #E67E22; }
.c7 { stroke: #16A085; } .c8 { stroke: #8B4513; }
</style>
<clipPath id="d8-in"><polygon points="200,50 280,130 200,210 120,130"/></clipPath>
<clipPath id="d8-out"><path d="M0,0H400V260H0Z M200,50L120,130 200,210 280,130Z" clip-rule="evenodd"/></clipPath>
</defs>

<polygon class="dm-bg" points="200,50 280,130 200,210 120,130"/>
<polygon class="dm" points="200,50 280,130 200,210 120,130"/>

<g clip-path="url(#d8-out)">
  <circle class="ring c1" cx="200" cy="43" r="30"/>
  <circle class="ring c2" cx="258" cy="64" r="30"/>
  <circle class="ring c3" cx="286" cy="130" r="30"/>
  <circle class="ring c4" cx="258" cy="196" r="30"/>
  <circle class="ring c5" cx="200" cy="217" r="30"/>
  <circle class="ring c6" cx="142" cy="196" r="30"/>
  <circle class="ring c7" cx="114" cy="130" r="30"/>
  <circle class="ring c8" cx="142" cy="64" r="30"/>
</g>

<g clip-path="url(#d8-in)">
  <circle class="ring c1" cx="200" cy="43" r="30"/>
  <circle class="ring c2" cx="258" cy="64" r="30"/>
  <circle class="ring c3" cx="286" cy="130" r="30"/>
  <circle class="ring c4" cx="258" cy="196" r="30"/>
  <circle class="ring c5" cx="200" cy="217" r="30"/>
  <circle class="ring c6" cx="142" cy="196" r="30"/>
  <circle class="ring c7" cx="114" cy="130" r="30"/>
  <circle class="ring c8" cx="142" cy="64" r="30"/>
</g>

</svg>
