<?xml version="1.0" encoding="UTF-8"?> <svg xmlns="http://www.w3.org/2000/svg" width="153" height="112" viewBox="0 0 153 112" fill="none"><path d="M86.83 33.26V42.48C86.83 43.31 86.57 43.99 86.05 44.55C85.79 44.82 85.48 45.04 85.13 45.19C84.78 45.34 84.36 45.43 83.88 45.43C83.33 45.43 82.87 45.31 82.5 45.07C82.13 44.83 81.84 44.59 81.63 44.35L82.99 43.27C83.11 43.39 83.26 43.5 83.42 43.58C83.58 43.67 83.76 43.71 83.94 43.71C84.04 43.71 84.16 43.69 84.3 43.65C84.44 43.61 84.57 43.53 84.69 43.42C84.81 43.32 84.92 43.17 85 42.99C85.08 42.8 85.12 42.56 85.12 42.25V33.27H86.85L86.83 33.26Z" fill="black"></path><path d="M88.61 36.0999C88.61 35.6099 88.69 35.1899 88.86 34.8099C89.03 34.4399 89.25 34.1299 89.54 33.8799C89.81 33.6399 90.12 33.4599 90.46 33.3399C90.8 33.2199 91.15 33.1499 91.5 33.1499C91.85 33.1499 92.2 33.2099 92.54 33.3399C92.89 33.4699 93.2 33.6499 93.48 33.8799C93.75 34.1299 93.97 34.4399 94.14 34.8099C94.31 35.1799 94.39 35.6099 94.39 36.0999V42.4699C94.39 42.9799 94.31 43.4099 94.14 43.7799C93.97 44.1399 93.75 44.4399 93.48 44.6799C93.2 44.9299 92.88 45.1199 92.54 45.2399C92.2 45.3599 91.85 45.4299 91.5 45.4299C91.15 45.4299 90.8 45.3699 90.46 45.2399C90.11 45.1199 89.81 44.9299 89.54 44.6799C89.26 44.4399 89.03 44.1399 88.86 43.7799C88.69 43.4199 88.61 42.9799 88.61 42.4699V36.0999ZM90.33 42.4699C90.33 42.8899 90.45 43.1999 90.68 43.3899C90.91 43.5899 91.19 43.6899 91.5 43.6899C91.81 43.6899 92.09 43.5899 92.32 43.3899C92.55 43.1899 92.67 42.8799 92.67 42.4699V36.0999C92.67 35.6799 92.55 35.3699 92.32 35.1799C92.09 34.9799 91.81 34.8799 91.5 34.8799C91.19 34.8799 90.91 34.9799 90.68 35.1799C90.45 35.3799 90.33 35.6899 90.33 36.0999V42.4699Z" fill="black"></path><path d="M101.77 33.26V42.61C101.77 43.01 101.7 43.37 101.56 43.7C101.42 44.03 101.22 44.33 100.96 44.59C100.7 44.85 100.4 45.05 100.06 45.2C99.7201 45.35 99.3601 45.42 98.9801 45.42C98.6001 45.42 98.2401 45.35 97.9001 45.2C97.5701 45.05 97.2701 44.85 97.0101 44.59C96.7501 44.33 96.5501 44.03 96.4001 43.7C96.2501 43.37 96.1801 43 96.1801 42.61V33.26H97.9101V42.44C97.9101 42.87 98.0101 43.19 98.2201 43.39C98.4201 43.59 98.6801 43.7 98.9801 43.7C99.2801 43.7 99.5401 43.6 99.7401 43.39C99.9401 43.19 100.05 42.87 100.05 42.44V33.26H101.78H101.77Z" fill="black"></path><path d="M103.65 45.32V33.26H106.43C108.46 33.26 109.48 34.44 109.48 36.8C109.48 37.51 109.37 38.12 109.15 38.61C108.93 39.11 108.54 39.51 107.99 39.81L109.85 45.32H108.02L106.41 40.17H105.38V45.32H103.65ZM105.38 34.88V38.64H106.36C106.67 38.64 106.91 38.6 107.09 38.51C107.27 38.42 107.41 38.3 107.51 38.15C107.6 37.99 107.66 37.8 107.7 37.56C107.73 37.33 107.75 37.06 107.75 36.76C107.75 36.46 107.73 36.19 107.7 35.96C107.67 35.73 107.6 35.53 107.5 35.36C107.29 35.04 106.88 34.89 106.28 34.89H105.38V34.88Z" fill="black"></path><path d="M111.06 45.32V33.26H112.72L115.33 40.53H115.36V33.26H117.09V45.32H115.46L112.82 38.07H112.79V45.32H111.06Z" fill="black"></path><path d="M118.12 45.32L120.81 33.26H122.25L124.94 45.32H123.21L122.7 42.73H120.34L119.83 45.32H118.1H118.12ZM122.39 41.1L121.54 36.73H121.51L120.66 41.1H122.39Z" fill="black"></path><path d="M126.05 45.32V33.26H127.78V43.6H131.2V45.33H126.05V45.32Z" fill="black"></path><path d="M135.88 36.0999C135.88 35.6099 135.96 35.1899 136.13 34.8099C136.3 34.4399 136.52 34.1299 136.81 33.8799C137.08 33.6399 137.39 33.4599 137.73 33.3399C138.07 33.2199 138.42 33.1499 138.77 33.1499C139.12 33.1499 139.47 33.2099 139.81 33.3399C140.16 33.4699 140.47 33.6499 140.75 33.8799C141.02 34.1299 141.24 34.4399 141.41 34.8099C141.58 35.1799 141.66 35.6099 141.66 36.0999V42.4699C141.66 42.9799 141.58 43.4099 141.41 43.7799C141.24 44.1399 141.02 44.4399 140.75 44.6799C140.47 44.9299 140.15 45.1199 139.81 45.2399C139.47 45.3599 139.12 45.4299 138.77 45.4299C138.42 45.4299 138.07 45.3699 137.73 45.2399C137.38 45.1199 137.08 44.9299 136.81 44.6799C136.53 44.4399 136.3 44.1399 136.13 43.7799C135.96 43.4199 135.88 42.9799 135.88 42.4699V36.0999ZM137.61 42.4699C137.61 42.8899 137.73 43.1999 137.96 43.3899C138.19 43.5899 138.47 43.6899 138.78 43.6899C139.09 43.6899 139.37 43.5899 139.6 43.3899C139.83 43.1899 139.95 42.8799 139.95 42.4699V36.0999C139.95 35.6799 139.83 35.3699 139.6 35.1799C139.37 34.9799 139.09 34.8799 138.78 34.8799C138.47 34.8799 138.19 34.9799 137.96 35.1799C137.73 35.3799 137.61 35.6899 137.61 36.0999V42.4699Z" fill="black"></path><path d="M143.45 45.32V33.26H148.6V34.89H145.18V38.55H148.16V40.18H145.18V45.33H143.45V45.32Z" fill="black"></path><path d="M82.8101 68.03V55.97H85.5901C87.6201 55.97 88.6401 57.15 88.6401 59.51C88.6401 60.22 88.5301 60.83 88.3101 61.32C88.0901 61.82 87.7001 62.22 87.1501 62.52L89.0101 68.03H87.1801L85.5701 62.88H84.5401V68.03H82.8101ZM84.5401 57.59V61.35H85.5201C85.8301 61.35 86.0701 61.31 86.2501 61.22C86.4301 61.13 86.5701 61.01 86.6701 60.86C86.7601 60.7 86.8201 60.51 86.8601 60.27C86.8901 60.04 86.9101 59.77 86.9101 59.47C86.9101 59.17 86.8901 58.9 86.8601 58.67C86.8301 58.44 86.7601 58.24 86.6601 58.07C86.4501 57.75 86.0401 57.6 85.4401 57.6H84.5401V57.59Z" fill="black"></path><path d="M90.1801 58.8099C90.1801 58.3199 90.2601 57.8999 90.4301 57.5199C90.6001 57.1499 90.8201 56.8399 91.1101 56.5899C91.3801 56.3499 91.6901 56.1699 92.0301 56.0499C92.3701 55.9299 92.7201 55.8599 93.0701 55.8599C93.4201 55.8599 93.7701 55.9199 94.1101 56.0499C94.4601 56.1799 94.7701 56.3599 95.0501 56.5899C95.3201 56.8399 95.5401 57.1499 95.7101 57.5199C95.8801 57.8899 95.9601 58.3199 95.9601 58.8099V65.1799C95.9601 65.6899 95.8801 66.1199 95.7101 66.4899C95.5401 66.8499 95.3201 67.1499 95.0501 67.3899C94.7701 67.6399 94.4501 67.8299 94.1101 67.9499C93.7701 68.0699 93.4201 68.1399 93.0701 68.1399C92.7201 68.1399 92.3701 68.0799 92.0301 67.9499C91.6801 67.8299 91.3801 67.6399 91.1101 67.3899C90.8301 67.1499 90.6001 66.8499 90.4301 66.4899C90.2601 66.1299 90.1801 65.6899 90.1801 65.1799V58.8099ZM91.9101 65.1799C91.9101 65.5999 92.0301 65.9099 92.2601 66.0999C92.4901 66.2999 92.7701 66.3999 93.0801 66.3999C93.3901 66.3999 93.6701 66.2999 93.9001 66.0999C94.1301 65.8999 94.2501 65.5899 94.2501 65.1799V58.8099C94.2501 58.3899 94.1301 58.0799 93.9001 57.8899C93.6701 57.6899 93.3901 57.5899 93.0801 57.5899C92.7701 57.5899 92.4901 57.6899 92.2601 57.8899C92.0301 58.0899 91.9101 58.3999 91.9101 58.8099V65.1799Z" fill="black"></path><path d="M97.76 68.03V55.97H100.28C100.83 55.97 101.3 56.05 101.7 56.22C102.09 56.39 102.41 56.62 102.66 56.9C102.91 57.18 103.09 57.51 103.19 57.87C103.3 58.24 103.35 58.62 103.35 59.01V59.45C103.35 59.78 103.32 60.05 103.27 60.28C103.22 60.51 103.14 60.7 103.04 60.87C102.85 61.19 102.55 61.46 102.16 61.68C102.57 61.87 102.87 62.15 103.06 62.53C103.25 62.9 103.35 63.41 103.35 64.05V64.73C103.35 65.79 103.09 66.61 102.58 67.17C102.07 67.74 101.24 68.02 100.12 68.02H97.76V68.03ZM99.48 57.59V60.91H100.26C100.84 60.91 101.22 60.77 101.42 60.48C101.62 60.19 101.72 59.77 101.72 59.22C101.72 58.67 101.61 58.27 101.39 58C101.17 57.73 100.77 57.59 100.2 57.59H99.49H99.48ZM99.48 62.44V66.3H100.23C100.58 66.3 100.85 66.25 101.05 66.15C101.25 66.05 101.4 65.91 101.5 65.73C101.6 65.55 101.66 65.34 101.69 65.09C101.72 64.84 101.72 64.57 101.72 64.28C101.72 63.99 101.7 63.71 101.67 63.48C101.64 63.25 101.57 63.06 101.47 62.9C101.36 62.74 101.2 62.63 101.01 62.55C100.82 62.47 100.56 62.44 100.25 62.44H99.49H99.48Z" fill="black"></path><path d="M110.82 55.97V65.32C110.82 65.72 110.75 66.08 110.61 66.41C110.47 66.74 110.27 67.04 110.01 67.3C109.75 67.56 109.45 67.76 109.11 67.91C108.77 68.06 108.41 68.13 108.03 68.13C107.65 68.13 107.29 68.06 106.95 67.91C106.62 67.76 106.32 67.56 106.06 67.3C105.8 67.04 105.6 66.74 105.45 66.41C105.3 66.08 105.23 65.71 105.23 65.32V55.97H106.96V65.15C106.96 65.58 107.06 65.9 107.27 66.1C107.47 66.3 107.73 66.41 108.03 66.41C108.33 66.41 108.59 66.31 108.79 66.1C108.99 65.9 109.1 65.58 109.1 65.15V55.97H110.83H110.82Z" fill="black"></path><path d="M118.29 59.4399H116.56V59.0499C116.56 58.6499 116.47 58.3099 116.28 58.0199C116.09 57.7299 115.78 57.5899 115.34 57.5899C115.1 57.5899 114.91 57.6399 114.76 57.7199C114.61 57.8099 114.49 57.9199 114.4 58.0599C114.31 58.2099 114.25 58.3699 114.21 58.5599C114.18 58.7499 114.16 58.9399 114.16 59.1399C114.16 59.3799 114.16 59.5699 114.19 59.7299C114.21 59.8899 114.25 60.0299 114.32 60.1499C114.39 60.2699 114.49 60.3799 114.62 60.4699C114.75 60.5599 114.93 60.6499 115.15 60.7399L116.47 61.2699C116.85 61.4199 117.16 61.5899 117.4 61.7899C117.64 61.9899 117.82 62.2199 117.96 62.4799C118.08 62.7499 118.17 63.0599 118.21 63.3999C118.26 63.7399 118.28 64.1399 118.28 64.5799C118.28 65.0899 118.23 65.5599 118.13 65.9899C118.03 66.4199 117.86 66.7899 117.64 67.0999C117.4 67.4199 117.09 67.6699 116.71 67.8499C116.33 68.0299 115.86 68.1199 115.3 68.1199C114.88 68.1199 114.49 68.0499 114.13 67.8999C113.77 67.7499 113.46 67.5499 113.2 67.2899C112.94 67.0299 112.73 66.7299 112.58 66.3799C112.43 66.0399 112.35 65.6599 112.35 65.2499V64.6099H114.08V65.1499C114.08 65.4699 114.17 65.7499 114.36 66.0099C114.55 66.2599 114.86 66.3899 115.3 66.3899C115.59 66.3899 115.82 66.3499 115.99 66.2599C116.15 66.1799 116.28 66.0499 116.37 65.8999C116.46 65.7399 116.51 65.5499 116.53 65.3299C116.55 65.1099 116.56 64.8599 116.56 64.5899C116.56 64.2699 116.55 64.0099 116.53 63.8099C116.51 63.6099 116.46 63.4399 116.39 63.3199C116.31 63.1999 116.21 63.0899 116.08 63.0199C115.95 62.9499 115.78 62.8599 115.56 62.7699L114.32 62.2599C113.57 61.9599 113.07 61.5499 112.82 61.0499C112.57 60.5499 112.44 59.9199 112.44 59.1599C112.44 58.7099 112.5 58.2799 112.63 57.8699C112.75 57.4599 112.94 57.1099 113.19 56.8199C113.43 56.5299 113.73 56.2899 114.1 56.1199C114.47 55.9499 114.9 55.8599 115.41 55.8599C115.84 55.8599 116.23 55.9399 116.59 56.0999C116.95 56.2599 117.25 56.4699 117.51 56.7299C118.03 57.2699 118.29 57.8899 118.29 58.5899V59.4399Z" fill="black"></path><path d="M120.97 68.03V57.59H118.97V55.96H124.7V57.59H122.7V68.03H120.97Z" fill="black"></path><path d="M125.64 68.03V55.97H127.3L129.91 63.24H129.94V55.97H131.67V68.03H130.04L127.4 60.78H127.37V68.03H125.64Z" fill="black"></path><path d="M133.49 68.03V55.97H138.64V57.6H135.22V61.14H138.2V62.77H135.22V66.31H138.64V68.04H133.49V68.03Z" fill="black"></path><path d="M145.6 59.4399H143.87V59.0499C143.87 58.6499 143.78 58.3099 143.59 58.0199C143.4 57.7299 143.09 57.5899 142.65 57.5899C142.41 57.5899 142.22 57.6399 142.07 57.7199C141.92 57.8099 141.8 57.9199 141.71 58.0599C141.62 58.2099 141.56 58.3699 141.52 58.5599C141.49 58.7499 141.47 58.9399 141.47 59.1399C141.47 59.3799 141.47 59.5699 141.5 59.7299C141.52 59.8899 141.56 60.0299 141.63 60.1499C141.7 60.2699 141.8 60.3799 141.93 60.4699C142.06 60.5599 142.24 60.6499 142.46 60.7399L143.78 61.2699C144.16 61.4199 144.47 61.5899 144.71 61.7899C144.95 61.9899 145.13 62.2199 145.27 62.4799C145.39 62.7499 145.48 63.0599 145.52 63.3999C145.57 63.7399 145.59 64.1399 145.59 64.5799C145.59 65.0899 145.54 65.5599 145.44 65.9899C145.34 66.4199 145.17 66.7899 144.95 67.0999C144.71 67.4199 144.4 67.6699 144.02 67.8499C143.64 68.0299 143.17 68.1199 142.61 68.1199C142.19 68.1199 141.8 68.0499 141.44 67.8999C141.08 67.7499 140.77 67.5499 140.51 67.2899C140.25 67.0299 140.04 66.7299 139.89 66.3799C139.74 66.0399 139.66 65.6599 139.66 65.2499V64.6099H141.39V65.1499C141.39 65.4699 141.48 65.7499 141.67 66.0099C141.86 66.2599 142.17 66.3899 142.61 66.3899C142.9 66.3899 143.13 66.3499 143.3 66.2599C143.46 66.1799 143.59 66.0499 143.68 65.8999C143.77 65.7399 143.82 65.5499 143.84 65.3299C143.86 65.1099 143.87 64.8599 143.87 64.5899C143.87 64.2699 143.86 64.0099 143.84 63.8099C143.82 63.6099 143.77 63.4399 143.7 63.3199C143.62 63.1999 143.52 63.0899 143.39 63.0199C143.26 62.9499 143.09 62.8599 142.87 62.7699L141.63 62.2599C140.88 61.9599 140.38 61.5499 140.13 61.0499C139.88 60.5499 139.75 59.9199 139.75 59.1599C139.75 58.7099 139.81 58.2799 139.94 57.8699C140.06 57.4599 140.25 57.1099 140.5 56.8199C140.74 56.5299 141.04 56.2899 141.41 56.1199C141.78 55.9499 142.21 55.8599 142.72 55.8599C143.15 55.8599 143.54 55.9399 143.9 56.0999C144.26 56.2599 144.56 56.4699 144.82 56.7299C145.34 57.2699 145.6 57.8899 145.6 58.5899V59.4399Z" fill="black"></path><path d="M152.74 59.4399H151.01V59.0499C151.01 58.6499 150.92 58.3099 150.73 58.0199C150.54 57.7299 150.23 57.5899 149.79 57.5899C149.55 57.5899 149.36 57.6399 149.21 57.7199C149.06 57.8099 148.94 57.9199 148.85 58.0599C148.76 58.2099 148.7 58.3699 148.66 58.5599C148.63 58.7499 148.61 58.9399 148.61 59.1399C148.61 59.3799 148.61 59.5699 148.64 59.7299C148.66 59.8899 148.7 60.0299 148.77 60.1499C148.84 60.2699 148.94 60.3799 149.07 60.4699C149.2 60.5599 149.38 60.6499 149.6 60.7399L150.92 61.2699C151.3 61.4199 151.61 61.5899 151.85 61.7899C152.09 61.9899 152.27 62.2199 152.41 62.4799C152.53 62.7499 152.62 63.0599 152.66 63.3999C152.71 63.7399 152.73 64.1399 152.73 64.5799C152.73 65.0899 152.68 65.5599 152.58 65.9899C152.48 66.4199 152.31 66.7899 152.09 67.0999C151.85 67.4199 151.54 67.6699 151.16 67.8499C150.78 68.0299 150.31 68.1199 149.75 68.1199C149.33 68.1199 148.94 68.0499 148.58 67.8999C148.22 67.7499 147.91 67.5499 147.65 67.2899C147.39 67.0299 147.18 66.7299 147.03 66.3799C146.88 66.0399 146.8 65.6599 146.8 65.2499V64.6099H148.53V65.1499C148.53 65.4699 148.62 65.7499 148.81 66.0099C149 66.2599 149.31 66.3899 149.75 66.3899C150.04 66.3899 150.27 66.3499 150.44 66.2599C150.6 66.1799 150.73 66.0499 150.82 65.8999C150.91 65.7399 150.96 65.5499 150.98 65.3299C151 65.1099 151.01 64.8599 151.01 64.5899C151.01 64.2699 151 64.0099 150.98 63.8099C150.96 63.6099 150.91 63.4399 150.84 63.3199C150.76 63.1999 150.66 63.0899 150.53 63.0199C150.4 62.9499 150.23 62.8599 150.01 62.7699L148.77 62.2599C148.02 61.9599 147.52 61.5499 147.27 61.0499C147.02 60.5499 146.89 59.9199 146.89 59.1599C146.89 58.7099 146.95 58.2799 147.08 57.8699C147.2 57.4599 147.39 57.1099 147.64 56.8199C147.88 56.5299 148.18 56.2899 148.55 56.1199C148.92 55.9499 149.35 55.8599 149.86 55.8599C150.29 55.8599 150.68 55.9399 151.04 56.0999C151.4 56.2599 151.7 56.4699 151.96 56.7299C152.48 57.2699 152.74 57.8899 152.74 58.5899V59.4399Z" fill="black"></path><path d="M82.8101 90.7399V78.6799H85.5901C87.6201 78.6799 88.6401 79.8599 88.6401 82.2199C88.6401 82.9299 88.5301 83.5399 88.3101 84.0299C88.0901 84.5299 87.7001 84.9299 87.1501 85.2299L89.0101 90.7399H87.1801L85.5701 85.5899H84.5401V90.7399H82.8101ZM84.5401 80.2999V84.0599H85.5201C85.8301 84.0599 86.0701 84.0199 86.2501 83.9299C86.4301 83.8399 86.5701 83.7199 86.6701 83.5699C86.7601 83.4099 86.8201 83.2199 86.8601 82.9799C86.8901 82.7499 86.9101 82.4799 86.9101 82.1799C86.9101 81.8799 86.8901 81.6099 86.8601 81.3799C86.8301 81.1499 86.7601 80.9499 86.6601 80.7799C86.4501 80.4599 86.0401 80.3099 85.4401 80.3099H84.5401V80.2999Z" fill="black"></path><path d="M90.28 90.7399V78.6799H95.43V80.3099H92.01V83.8499H94.99V85.4799H92.01V89.0199H95.43V90.7499H90.28V90.7399Z" fill="black"></path><path d="M96.81 90.7399V78.6799H99.4C99.88 78.6799 100.29 78.7399 100.65 78.8699C101.01 78.9899 101.34 79.2099 101.63 79.5299C101.92 79.8499 102.13 80.2199 102.24 80.6399C102.35 81.0599 102.41 81.6399 102.41 82.3599C102.41 82.8999 102.38 83.3599 102.32 83.7299C102.26 84.0999 102.13 84.4499 101.92 84.7799C101.68 85.1799 101.37 85.4799 100.97 85.6999C100.57 85.9199 100.05 86.0299 99.41 86.0299H98.53V90.7399H96.8H96.81ZM98.53 80.2999V84.3999H99.36C99.71 84.3999 99.98 84.3499 100.17 84.2499C100.36 84.1499 100.5 84.0099 100.59 83.8299C100.68 83.6599 100.73 83.4499 100.75 83.1999C100.77 82.9499 100.77 82.6699 100.77 82.3699C100.77 82.0899 100.77 81.8199 100.75 81.5699C100.74 81.3199 100.69 81.0899 100.6 80.8999C100.51 80.7099 100.37 80.5599 100.19 80.4599C100.01 80.3599 99.75 80.3099 99.41 80.3099H98.51L98.53 80.2999Z" fill="black"></path><path d="M103.86 81.5198C103.86 81.0298 103.94 80.6098 104.11 80.2298C104.28 79.8598 104.5 79.5498 104.79 79.2998C105.06 79.0598 105.37 78.8798 105.71 78.7598C106.05 78.6398 106.4 78.5698 106.75 78.5698C107.1 78.5698 107.45 78.6298 107.79 78.7598C108.14 78.8898 108.45 79.0698 108.73 79.2998C109 79.5498 109.22 79.8598 109.39 80.2298C109.56 80.5998 109.64 81.0298 109.64 81.5198V87.8898C109.64 88.3998 109.56 88.8298 109.39 89.1998C109.22 89.5598 109 89.8598 108.73 90.0998C108.45 90.3498 108.13 90.5398 107.79 90.6598C107.45 90.7798 107.1 90.8498 106.75 90.8498C106.4 90.8498 106.05 90.7898 105.71 90.6598C105.36 90.5398 105.06 90.3498 104.79 90.0998C104.51 89.8598 104.28 89.5598 104.11 89.1998C103.94 88.8398 103.86 88.3998 103.86 87.8898V81.5198ZM105.58 87.8898C105.58 88.3098 105.7 88.6198 105.93 88.8098C106.16 89.0098 106.44 89.1098 106.75 89.1098C107.06 89.1098 107.34 89.0098 107.57 88.8098C107.8 88.6098 107.92 88.2998 107.92 87.8898V81.5198C107.92 81.0998 107.8 80.7898 107.57 80.5998C107.34 80.3998 107.06 80.2998 106.75 80.2998C106.44 80.2998 106.16 80.3998 105.93 80.5998C105.7 80.7998 105.58 81.1098 105.58 81.5198V87.8898Z" fill="black"></path><path d="M111.43 90.7399V78.6799H114.21C116.24 78.6799 117.26 79.8599 117.26 82.2199C117.26 82.9299 117.15 83.5399 116.93 84.0299C116.71 84.5299 116.32 84.9299 115.77 85.2299L117.63 90.7399H115.8L114.19 85.5899H113.16V90.7399H111.43ZM113.16 80.2999V84.0599H114.14C114.45 84.0599 114.69 84.0199 114.87 83.9299C115.05 83.8399 115.19 83.7199 115.29 83.5699C115.38 83.4099 115.44 83.2199 115.48 82.9799C115.51 82.7499 115.53 82.4799 115.53 82.1799C115.53 81.8799 115.51 81.6099 115.48 81.3799C115.45 81.1499 115.38 80.9499 115.28 80.7799C115.07 80.4599 114.66 80.3099 114.06 80.3099H113.16V80.2999Z" fill="black"></path><path d="M119.73 90.7399V80.2999H117.73V78.6699H123.46V80.2999H121.46V90.7399H119.73Z" fill="black"></path><path d="M130.07 82.1498H128.34V81.7598C128.34 81.3598 128.25 81.0198 128.06 80.7298C127.87 80.4398 127.56 80.2998 127.12 80.2998C126.88 80.2998 126.69 80.3498 126.54 80.4298C126.39 80.5198 126.27 80.6298 126.18 80.7698C126.09 80.9198 126.03 81.0798 125.99 81.2698C125.96 81.4598 125.94 81.6498 125.94 81.8498C125.94 82.0898 125.94 82.2798 125.97 82.4398C125.99 82.5998 126.03 82.7398 126.1 82.8598C126.17 82.9798 126.27 83.0898 126.4 83.1798C126.53 83.2698 126.71 83.3598 126.93 83.4498L128.25 83.9798C128.63 84.1298 128.94 84.2998 129.18 84.4998C129.42 84.6998 129.6 84.9298 129.74 85.1898C129.86 85.4598 129.95 85.7698 129.99 86.1098C130.04 86.4498 130.06 86.8498 130.06 87.2898C130.06 87.7998 130.01 88.2698 129.91 88.6998C129.81 89.1298 129.64 89.4998 129.42 89.8098C129.18 90.1298 128.87 90.3798 128.49 90.5598C128.11 90.7398 127.64 90.8298 127.08 90.8298C126.66 90.8298 126.27 90.7598 125.91 90.6098C125.55 90.4598 125.24 90.2598 124.98 89.9998C124.72 89.7398 124.51 89.4398 124.36 89.0898C124.21 88.7498 124.13 88.3698 124.13 87.9598V87.3198H125.86V87.8598C125.86 88.1798 125.95 88.4598 126.14 88.7198C126.33 88.9698 126.64 89.0998 127.08 89.0998C127.37 89.0998 127.6 89.0598 127.77 88.9698C127.93 88.8898 128.06 88.7598 128.15 88.6098C128.24 88.4498 128.29 88.2598 128.31 88.0398C128.33 87.8198 128.34 87.5698 128.34 87.2998C128.34 86.9798 128.33 86.7198 128.31 86.5198C128.29 86.3198 128.24 86.1498 128.17 86.0298C128.09 85.9098 127.99 85.7998 127.86 85.7298C127.73 85.6598 127.56 85.5698 127.34 85.4798L126.1 84.9698C125.35 84.6698 124.85 84.2598 124.6 83.7598C124.35 83.2598 124.22 82.6298 124.22 81.8698C124.22 81.4198 124.28 80.9898 124.41 80.5798C124.53 80.1698 124.72 79.8198 124.97 79.5298C125.21 79.2398 125.51 78.9998 125.88 78.8298C126.25 78.6598 126.68 78.5698 127.19 78.5698C127.62 78.5698 128.01 78.6498 128.37 78.8098C128.73 78.9698 129.03 79.1798 129.29 79.4398C129.81 79.9798 130.07 80.5998 130.07 81.2998V82.1498Z" fill="black"></path><path d="M68.41 47.6199L65.85 46.9899L50.89 19.2499L47.06 19.6199L38 0.899902L26.11 27.6399L19.24 25.6899L3.65002 51.7099L5.11003 52.5799L5.82002 51.3999L6.12003 51.7599L17.76 41.9499L30.63 44.4199L33.68 52.1699L35.26 51.5499L32.16 43.6799L34.42 38.0999L45.95 39.4699L38.82 51.5199L40.28 52.3899L47.51 40.1599L59.79 52.6399L60.65 51.7899L61.06 52.3599L65.98 48.7799V48.7599L67.48 49.1299L70.95 52.9799L72.21 51.8399L68.39 47.5999L68.41 47.6199ZM51.39 23.7499L59.78 39.2999L51.32 29.1999L51.4 23.7499H51.39ZM49.73 21.0699L49.65 29.9699L47.5 35.9099L41.17 11.3499L46.05 21.4299L49.73 21.0699ZM27.47 28.7899L37.88 5.3799L46.23 37.7899L34.31 36.3699L27.48 28.7799L27.47 28.7899ZM18.17 30.7999L16.73 40.5999L7.78003 48.1399L18.17 30.7899V30.7999ZM30.73 42.7099L18.49 40.3599L20.34 27.7699L25.63 29.2799L32.9 37.3599L30.73 42.7099ZM60.36 50.7899L48.33 38.5599L50.94 31.3999L63.58 46.4899L63.63 46.4499L64.39 47.8699L60.36 50.7999V50.7899Z" fill="#0075B3"></path><path d="M70.47 51.8901L70.37 52.0801L70.19 51.8501L53.88 64.4801C52.3 63.9601 45.94 61.7201 41.37 60.0901L40.5 52.3401L38.81 52.5301L39.73 60.7401L39.13 71.3201L30.2 67.5001L35.37 52.4301L33.76 51.8801L28.74 66.5101L11.91 51.6201L10.78 52.8901L28.5 68.5701L36.05 101.77L25.9 79.5101L19.27 78.7501L5.74998 52.1501L4.22998 52.9201L18.17 80.3401L24.76 81.0901L38.5 111.21L51.76 86.1301L59 80.6401L65.41 65.0201L71.98 52.6901L70.48 51.8901H70.47ZM50.25 85.3301L38.93 106.74L30.45 69.4501L39.4 73.2801L50.25 85.3301ZM40.77 72.2701L41.36 61.9001C49.39 64.7601 52.27 65.7501 53.35 66.0901L57.01 80.0101L51.5 84.1901L40.77 72.2701ZM63.86 64.3001L58.24 77.9901L55.02 65.7501L68.75 55.1201L63.86 64.3001Z" fill="#84B8D7"></path><path d="M75.05 32.8601V51.3001H0.75V53.0001H75.05V90.8301H76.75V32.8601H75.05Z" fill="#0075B3"></path></svg> 